<?xml version="1.0" standalone="no"?>
<!DOCTYPE svg PUBLIC "-//W3C//DTD SVG 20010904//EN"
 "http://www.w3.org/TR/2001/REC-SVG-20010904/DTD/svg10.dtd">
<svg version="1.0" xmlns="http://www.w3.org/2000/svg"
 width="1254.000000pt" height="1254.000000pt" viewBox="0 0 1254.000000 1254.000000"
 preserveAspectRatio="xMidYMid meet">

<g transform="translate(0.000000,1254.000000) scale(0.100000,-0.100000)"
fill="#000000" stroke="none">
<path d="M5920 12480 c-394 -32 -688 -79 -1050 -170 -194 -48 -534 -153 -557
-172 -26 -21 -24 -67 8 -180 195 -693 649 -1218 1264 -1461 196 -78 383 -115
620 -124 304 -11 566 41 845 167 212 96 396 225 570 400 252 252 421 534 545
905 80 239 82 281 15 307 -263 100 -802 233 -1145 282 -311 45 -856 67 -1115
46z"/>
<path d="M3105 11654 c-826 -476 -1596 -1256 -2083 -2113 -85 -150 -282 -551
-282 -574 0 -34 21 -58 90 -102 220 -141 491 -236 758 -265 156 -17 416 -8
547 20 795 169 1379 826 1501 1690 41 291 4 676 -92 940 -66 185 -203 448
-244 470 -35 19 -65 9 -195 -66z"/>
<path d="M9223 11715 c-26 -18 -96 -137 -162 -276 -133 -278 -212 -659 -196
-944 39 -686 384 -1305 910 -1632 327 -204 697 -297 1082 -272 249 16 460 73
688 184 241 118 272 147 245 224 -21 61 -202 418 -285 561 -488 848 -1245
1612 -2071 2089 -143 83 -174 92 -211 66z"/>
<path d="M6168 10030 c-72 -12 -162 -48 -232 -95 -151 -100 -246 -283 -246
-471 1 -173 56 -311 171 -425 201 -200 521 -221 749 -50 315 236 304 730 -20
946 -121 80 -283 117 -422 95z"/>
<path d="M3670 9234 c-296 -63 -492 -363 -440 -671 25 -149 133 -311 262 -394
129 -83 338 -107 485 -56 100 34 158 70 228 141 113 113 167 245 168 411 0 83
-4 113 -27 180 -37 108 -79 176 -153 245 -139 130 -336 185 -523 144z"/>
<path d="M8645 9243 c-225 -30 -420 -205 -480 -433 -19 -71 -19 -208 0 -289
46 -196 212 -368 400 -414 184 -46 342 -20 488 80 297 202 334 638 76 894
-126 126 -305 186 -484 162z"/>
<path d="M361 8023 c-30 -26 -136 -402 -200 -713 -156 -759 -158 -1506 -5
-2285 58 -298 187 -787 216 -822 18 -22 78 -14 197 26 144 49 249 97 367 166
584 344 951 961 981 1650 17 396 -92 811 -300 1140 -255 403 -644 694 -1114
834 -86 26 -115 26 -142 4z"/>
<path d="M12012 8014 c-520 -153 -937 -504 -1181 -991 -143 -285 -211 -576
-211 -898 0 -316 63 -586 205 -880 107 -221 226 -385 406 -561 216 -209 451
-353 746 -454 128 -44 162 -48 186 -22 31 35 152 487 217 814 187 947 133
1961 -155 2882 -47 152 -57 157 -213 110z"/>
<path d="M6815 8006 c-27 -13 -65 -39 -84 -59 -35 -37 -49 -75 -408 -1102 -69
-198 -231 -659 -360 -1025 -469 -1328 -466 -1317 -460 -1383 6 -73 45 -139
106 -182 37 -26 53 -30 119 -33 66 -3 84 0 122 20 82 44 107 91 219 411 57
161 160 456 231 657 70 201 176 500 235 665 176 493 524 1481 571 1620 48 141
55 203 29 276 -48 134 -192 196 -320 135z"/>
<path d="M5131 7389 c-92 -17 -123 -42 -494 -407 -680 -667 -711 -700 -735
-765 -30 -78 -29 -157 2 -222 13 -29 57 -84 101 -130 770 -788 947 -964 998
-986 133 -59 289 -4 341 123 25 58 21 159 -8 216 -16 31 -145 174 -383 422
-197 206 -381 399 -408 429 l-50 54 427 422 c235 232 443 445 462 474 83 122
42 283 -86 344 -63 30 -107 37 -167 26z"/>
<path d="M7489 7377 c-133 -38 -206 -179 -165 -321 15 -52 31 -72 181 -229 90
-95 280 -291 423 -437 l259 -265 -30 -35 c-17 -19 -168 -177 -337 -350 -433
-445 -469 -484 -490 -533 -27 -61 -34 -116 -20 -167 28 -109 104 -169 221
-178 63 -4 75 -2 133 27 56 27 120 89 567 539 566 570 573 579 572 700 -1 123
-8 131 -570 697 -426 429 -509 509 -555 530 -69 31 -130 38 -189 22z"/>
<path d="M2625 6680 c-205 -41 -375 -205 -430 -415 -19 -76 -19 -210 1 -289
50 -194 214 -355 406 -401 304 -72 604 117 672 422 68 306 -116 607 -415 678
-68 16 -168 18 -234 5z"/>
<path d="M9640 6674 c-198 -52 -354 -210 -405 -409 -24 -93 -20 -219 10 -313
122 -388 604 -521 901 -249 334 304 195 860 -241 972 -73 19 -192 18 -265 -1z"/>
<path d="M3661 4275 c-194 -42 -351 -191 -414 -390 -28 -91 -29 -254 -3 -330
88 -248 263 -389 501 -402 113 -7 184 8 284 57 212 107 333 341 300 580 -47
337 -346 554 -668 485z"/>
<path d="M8592 4270 c-97 -26 -173 -70 -247 -144 -134 -135 -197 -339 -160
-521 52 -257 254 -438 505 -452 112 -7 188 8 286 57 152 75 268 226 305 401
37 174 -33 394 -168 526 -132 127 -343 182 -521 133z"/>
<path d="M1610 3774 c-14 -2 -68 -12 -120 -20 -198 -34 -417 -116 -612 -230
-80 -47 -108 -75 -108 -107 0 -27 156 -335 256 -503 467 -793 1064 -1432 1794
-1921 116 -77 387 -238 437 -259 64 -27 89 -2 184 187 314 625 285 1371 -77
1968 -108 178 -297 389 -459 512 -228 174 -478 291 -751 349 -79 17 -142 22
-309 25 -115 2 -221 2 -235 -1z"/>
<path d="M10520 3774 c-567 -69 -1072 -393 -1369 -877 -218 -356 -331 -811
-300 -1210 20 -269 82 -496 204 -742 79 -160 115 -211 155 -220 47 -11 454
238 735 449 576 432 1038 939 1442 1581 89 142 246 420 314 556 48 97 51 109
40 135 -22 54 -289 191 -497 257 -164 52 -284 69 -494 72 -107 2 -211 1 -230
-1z"/>
<path d="M6175 3384 c-11 -2 -40 -10 -65 -16 -166 -41 -321 -189 -382 -366
-19 -57 -23 -86 -22 -192 0 -111 3 -133 27 -193 94 -241 305 -379 557 -364
153 9 262 57 366 163 345 350 116 950 -371 969 -49 2 -99 2 -110 -1z"/>
<path d="M6050 1994 c-645 -80 -1205 -474 -1552 -1089 -88 -156 -198 -431
-198 -495 0 -40 24 -55 155 -95 1183 -361 2406 -362 3590 -3 148 44 170 61
161 118 -9 59 -92 268 -158 399 -108 215 -221 374 -380 540 -275 285 -605 486
-938 571 -176 45 -233 52 -440 55 -113 2 -221 1 -240 -1z"/>
</g>
</svg>
